<svg width="40" height="40" viewBox="0 0 40 40" fill="none" xmlns="http://www.w3.org/2000/svg">
<path d="M36.6667 30.0078C36.6667 30.9238 35.924 31.6665 35.008 31.6665H21.6587C20.7427 31.6665 20 30.9238 20 30.0078C20 29.0918 20.7427 28.3491 21.6587 28.3491H35.008C35.924 28.3491 36.6667 29.0918 36.6667 30.0078Z" fill="white"/>
<path d="M36.6667 20.0003C36.6667 20.9165 35.924 21.659 35.008 21.659H4.99196C4.07591 21.659 3.33331 20.9165 3.33331 20.0003C3.33331 19.0843 4.07591 18.3418 4.99196 18.3418H35.008C35.924 18.3418 36.6667 19.0843 36.6667 20.0003Z" fill="#5176FF"/>
<path d="M35.008 11.6508C35.924 11.6508 36.6667 10.9082 36.6667 9.99215C36.6667 9.0761 35.924 8.3335 35.008 8.3335H14.992C14.0759 8.3335 13.3333 9.0761 13.3333 9.99215C13.3333 10.9082 14.0759 11.6508 14.992 11.6508H35.008Z" fill="white"/>
</svg>
